<?xml version="1.0" encoding="utf-8"?>
<svg version="1.1" id="Capa_1" xmlns="http://www.w3.org/2000/svg" xmlns:xlink="http://www.w3.org/1999/xlink" x="0px" y="0px"
	 viewBox="0 0 200 200" style="enable-background:new 0 0 200 200;" xml:space="preserve">
<style type="text/css">
	.st0{fill:transparent;stroke:#ededed;stroke-miterlimit:10;opacity:1;}
	.st1{opacity:.1;fill:#fff;}
	.st2{fill:#B8A168;}
	.st3{fill:#D3DDD7;}
	.st4{fill:#B4B5A3;}
	.st5{fill:#9F956B;}
	.st6{fill:#8E5B1F;}
	.st7{fill:url(#XMLID_2_);}
	.st8{fill:#512312;}
	.st9{fill:url(#XMLID_3_);}
	.st10{fill:url(#XMLID_86_);}
	.st11{fill:url(#XMLID_87_);}
	.st12{fill:url(#XMLID_88_);}
	.st13{fill:url(#XMLID_89_);}
	.st14{fill:url(#XMLID_90_);}
	.st15{fill:url(#XMLID_91_);}
	.st16{fill:url(#XMLID_92_);}
	.st17{fill:url(#XMLID_93_);}
	.st18{fill:url(#XMLID_94_);}
	.st19{fill:url(#XMLID_95_);}
	.st20{fill:url(#XMLID_96_);}
	.st21{fill:url(#XMLID_97_);}
	.st22{fill:url(#XMLID_98_);}
	.st23{fill:url(#XMLID_99_);}
	.st24{fill:url(#XMLID_100_);}
	.st25{fill:url(#XMLID_101_);}
	.st26{fill:url(#XMLID_102_);}
	.st27{fill:#FFFFFF;}
	.st28{fill:#FEFEFD;}
</style>
<g id="ejemplo5">
	<path id="XMLID_83_" class="st0" d="M189,71.2v-2.1c0-9-6.7-16.4-15.4-17.6c-0.1-6.6-3.8-12.4-9.2-15.4c-3-5.4-8.8-9.2-15.4-9.2
		c-1.2-8.7-8.6-15.4-17.6-15.4h-2.1c-2.8-6-9-10.3-16.1-10.3H87.3c-7.1,0-13.2,4.2-16.1,10.3h-2.1c-9,0-16.4,6.7-17.6,15.4
		c-5.7,0.1-10.8,2.9-14,7.2c-8.8,1.1-15.6,8.6-15.6,17.6V53c-6.1,2.8-10.4,9-10.4,16.1v2.1c-6,2.8-10.3,9-10.3,16.1v25.9
		c0,7.1,4.2,13.2,10.3,16.1v2.1c0,7.1,4.3,13.3,10.4,16.1v1.3c0,8,5.4,14.9,12.8,17.1c2.2,7.4,9,12.8,17.1,12.8H53
		c2.8,6.1,9,10.4,16.1,10.4h2.1c2.8,6,9,10.3,16.1,10.3h25.9c7.1,0,13.2-4.2,16.1-10.3h2.1c7.1,0,13.3-4.3,16.1-10.4h1.3
		c9,0,16.5-6.8,17.6-15.6c4.3-3.2,7.1-8.3,7.2-14c8.7-1.2,15.4-8.6,15.4-17.6v-2.1c6-2.8,10.3-9,10.3-16.1V87.3
		C199.3,80.2,195,74.1,189,71.2z"/>
	<path id="XMLID_82_" class="st0" d="M180.1,74.1v-1.9c0-8.1-6.1-14.8-13.8-15.8c-0.1-6-3.4-11.1-8.3-13.9
		c-2.7-4.9-7.9-8.3-13.9-8.3c-1.1-7.8-7.8-13.8-15.8-13.8h-1.9c-2.6-5.4-8.1-9.2-14.5-9.2H88.6c-6.4,0-11.9,3.8-14.5,9.2h-1.9
		c-8.1,0-14.8,6.1-15.8,13.8c-5.2,0.1-9.7,2.6-12.6,6.5c-7.9,1-14,7.7-14,15.9v1.1c-5.5,2.5-9.3,8.1-9.3,14.5v1.9
		c-5.4,2.6-9.2,8.1-9.2,14.5V112c0,6.4,3.8,11.9,9.2,14.5v1.9c0,6.4,3.8,12,9.3,14.5v1.1c0,7.2,4.9,13.4,11.5,15.3
		c2,6.6,8.1,11.5,15.3,11.5h1.1c2.5,5.5,8.1,9.3,14.5,9.3h1.9c2.6,5.4,8.1,9.2,14.5,9.2h23.4c6.4,0,11.9-3.8,14.5-9.2h1.9
		c6.4,0,12-3.8,14.5-9.3h1.1c8.1,0,14.9-6.2,15.9-14c3.9-2.9,6.4-7.5,6.5-12.6c7.8-1.1,13.8-7.8,13.8-15.8v-1.9
		c5.4-2.6,9.2-8.1,9.2-14.5V88.6C189.4,82.2,185.6,76.7,180.1,74.1z"/>
	<path id="XMLID_81_" class="st0" d="M176.4,75.3v-1.8c0-7.7-5.8-14.1-13.2-15.1c-0.1-5.7-3.3-10.6-7.9-13.2
		c-2.6-4.7-7.5-7.9-13.2-7.9c-1-7.4-7.4-13.2-15.1-13.2h-1.8c-2.4-5.2-7.7-8.8-13.8-8.8H89.1c-6.1,0-11.4,3.6-13.8,8.8h-1.8
		c-7.7,0-14.1,5.8-15.1,13.2c-4.9,0.1-9.3,2.5-12.1,6.2C38.8,44.4,33,50.9,33,58.6v1.1c-5.2,2.4-8.9,7.7-8.9,13.9v1.8
		c-5.2,2.4-8.8,7.7-8.8,13.8v22.3c0,6.1,3.6,11.4,8.8,13.8v1.8c0,6.1,3.7,11.4,8.9,13.9v1.1c0,6.9,4.6,12.8,11,14.6
		c1.9,6.3,7.7,11,14.6,11h1.1c2.4,5.2,7.7,8.9,13.9,8.9h1.8c2.4,5.2,7.7,8.8,13.8,8.8h22.3c6.1,0,11.4-3.6,13.8-8.8h1.8
		c6.1,0,11.4-3.7,13.9-8.9h1.1c7.8,0,14.2-5.9,15.1-13.4c3.7-2.8,6.1-7.1,6.2-12.1c7.4-1,13.2-7.4,13.2-15.1v-1.8
		c5.2-2.4,8.8-7.7,8.8-13.8V89.2C185.2,83.1,181.6,77.8,176.4,75.3z"/>
	<path id="XMLID_80_" class="st1" d="M173.7,76.2v-1.7c0-7.4-5.6-13.6-12.7-14.6c-0.1-5.5-3.1-10.3-7.6-12.7
		c-2.5-4.5-7.3-7.6-12.7-7.6c-1-7.2-7.2-12.7-14.6-12.7h-1.7c-2.4-5-7.4-8.5-13.3-8.5H89.5c-5.9,0-11,3.5-13.3,8.5h-1.7
		c-7.4,0-13.6,5.6-14.6,12.7c-4.7,0-9,2.4-11.6,5.9c-7.2,0.9-12.9,7.1-12.9,14.6v1.1c-5.1,2.3-8.6,7.5-8.6,13.4v1.7
		c-5,2.4-8.5,7.4-8.5,13.3V111c0,5.9,3.5,11,8.5,13.3v1.7c0,5.9,3.5,11,8.6,13.4v1.1c0,6.7,4.5,12.3,10.6,14.1
		c1.8,6.1,7.5,10.6,14.1,10.6h1.1c2.3,5.1,7.5,8.6,13.4,8.6h1.7c2.4,5,7.4,8.5,13.3,8.5H111c5.9,0,11-3.5,13.3-8.5h1.7
		c5.9,0,11-3.5,13.4-8.6h1.1c7.5,0,13.7-5.7,14.6-12.9c3.6-2.7,5.9-6.9,5.9-11.6c7.2-1,12.7-7.2,12.7-14.6v-1.7
		c5-2.4,8.5-7.4,8.5-13.3V89.6C182.2,83.7,178.7,78.6,173.7,76.2z"/>
	<g id="ejemplo5_1_">
		<g id="pasta_y_nata_4_">
			<g id="XMLID_76_">
				<path id="XMLID_79_" class="st2" d="M140.8,101.2c0,0-1.6,5.2,1.9,12.2c0,0-5.4,17.5-24.2,20.5c0,0,1.3-21.8-3.2-30.4
					c0,0-2.8-13.6-2-15.8c0,0,1.7-3.7,0-8.4c0,0,3.5-2.2,4.7-5.4c0.2-0.3,0.4-0.7,0.7-1c0,0,1.5-1.9,4.9,1.2c0,0,6.2-1.3,8,4
					c0,0,6-1.1,5.2,14.3C136.7,92.3,141.2,96.8,140.8,101.2z"/>
				<path id="XMLID_78_" class="st2" d="M84.9,124.6c0,0-1.5-6.7,0-16.8c0.5-3.4,2,0,5.8-13.6c0.5-2.3,1.5-3.1,2.2-3.5
					c1.2-0.5,2.1,0.2,3.7-0.5c0.3-0.1,1-0.7,2.2-1.7c0,0,0.6-0.5,2.6-2.2c0.4-0.2,3.1-1.2,5.4,0.1c0.3,0.2,1.2,0.7,2,2.2
					c1.6,2.8,1.3,5.7,1.3,6.5c-0.2,2.7,0.3,7,3.6,13.8c0,0,3.2,9.5,2.8,17.4c-0.5,8-0.5,8-0.5,8c-6.6,3-11.2,3.2-13.9,3
					c-1.3-0.1-4.2-0.4-6.5-0.7c-6.9-0.8-5.4-0.8-6.2-0.9c-1.6-0.1-2.2,0.1-2.8-0.5c-1-0.9-0.4-2.4-0.5-4.7
					C85.9,128.2,85.4,127.8,84.9,124.6z"/>
				<path id="XMLID_77_" class="st2" d="M63.5,64.3c-0.9,1.3-1.9,2.8-2.6,4.6c-3.4,7.8-2,15.3-1.1,18.9c0,0,2.8,0.6,0.6,15.7
					c0,1.1,0.1,2.5,0.3,3.9c0.5,2.8,1.6,5,2.4,6.4c1,2.5,1.3,4.4,1.3,5.7c-0.1,1.9-0.5,3.7,0.2,4.8c0.2,0.4,0.9,1.1,0.7,1.9
					c-0.1,0.2-0.1,0.6,0,0.7c0.1,0.1,0.4-0.1,0.4-0.1c1.2-0.7,8.3,1.4,8.1,3.2c0,0.1-0.1,0.2,0,0.4c0.2,0.6,1.5,0.5,2.6,0.7
					c0.7,0.1,1.7,0.4,2.8,1.3c-0.6-2.5-1.2-6.4-0.6-11c0.2-1.6,0.4-2.2,0.6-3.7c0.4-2.8,0.6-6.9-0.6-12.3c-0.2-0.3-0.5-0.7-0.7-1.3
					c-0.1-0.1-0.6-1.2-0.9-2.2c-0.5-1.9-0.3-3.7-0.1-4.7c-0.7-3.2-1-5.7-1.1-7.6c-0.1-1.7-0.1-2.5-0.5-3.7c-0.1-0.5-0.8-2.9-3-5.4
					c-2.5-3-4.4-3.1-5.1-5.4c-0.4-1.3-0.2-2.5,0-3.2c0.4-0.4,1.2-1,1.5-2.1c0.4-1.3,0-2.4-0.5-3.6c-0.4-1.3-0.7-2-1.5-2.4
					C65.3,62.9,63.6,64.3,63.5,64.3z"/>
			</g>
			<path id="nata_4_" class="st3" d="M75.4,88.6c-1.1,1.3-8.9-3.6-8.9-3.6c-4-3.5-4.5,4.6-4.5,4.6v0.6c-1.2,2.8-1.2,11.4-1.2,11.4
				c1.4-2.6,4.2,2.5,4.2,2.5c-2.8-0.5,5,9.8,5,9.8c0.9,3.6,7.9,2.8,7.9,2.8c9.5,6.8,8.9,1.2,8.9,1.2c-2.1-3.6,4.3-0.1,4.3-0.1
				c8.7,6.1,11.3,4,11.3,4c2.8,2.3,6.6,0,6.6,0c4.1,1.8,4.4,0,4.4,0c2.8-3.1,7.4,0,7.4,0c-0.5-2.2,3.7,1.9,3.7,1.9
				c8.9,0.7,7.5-8.7,7.5-8.7c11.3,4.8,14-3.7,14-3.7c-1.3-0.2,3.5-5.2,3.5-5.2c1.1-1.3-4.2-11.3-4.2-11.3c3.2,0.1,4.2-4.5,4.2-4.5
				c-4.5-8.6-2.1-10.1-2.1-10.1c-6.4,10.4-14.5,11.9-14.5,11.9c-1.1-1.9-8.7,3.2-8.7,3.2c-3.2,7.2-14.3,4.2-14.3,4.2
				c-12.3,2.6-17-1.7-17-1.7c-5.6-6-18.6-9.2-18.6-9.2"/>
			<g id="nata_m_4_">
				<path id="XMLID_75_" class="st4" d="M118.2,99.7c-5-0.4-2.5,4.8-2.5,4.8c17.1,11,14.9,14.7,14.9,14.7c2.4-4.1,0-7.2,0-7.2
					c-9.4-7.2-9.4-13.3-9.4-13.3C121.6,98.9,119.4,99.8,118.2,99.7z"/>
				<path id="XMLID_74_" class="st4" d="M138.3,106.5c5.1-7.9-8.3-13-8.3-13s-4.2-1.3-7.6,4.3c1.9,2.1,4.2,4.3,7,6.6
					c2,1.6,4,3,5.8,4.1c0.7,0.7,2.8,2.2,5.9,2.5c2,0.1,3.7-0.3,4.5-0.7c-1.6-0.4-3.7-1.1-5.8-2.6
					C139.3,107.4,138.7,106.9,138.3,106.5z"/>
				<path id="XMLID_73_" class="st4" d="M90.2,95.6c0,0-0.5,4.2-1.9,5.7c0,0,3-0.1,8.1,7.2c0,0,4.3,3.6,14.2,5.7
					c0,0,4.1-2.4,13.5,8.8h1.8c0,0-7.5-13.4-16.1-12.6c0,0-0.7,1.5-14.8-11.7C94.8,98.7,89.8,94.5,90.2,95.6z"/>
				<path id="XMLID_72_" class="st4" d="M73.7,88.6c0,0-4,20.6,41.2,32.6C108.6,125.6,52.8,99.2,73.7,88.6z"/>
			</g>
			<g id="sombra_4_">
				<path id="XMLID_71_" class="st5" d="M74.6,88.5"/>
				<path id="XMLID_70_" class="st5" d="M93.4,117c0,0,10.7,6.3,18.9,3.4c0,0-8.9,4.1-27.4-10.4c0,0-24.2-12.7-11.2-21.3
					c0,0-14.8-5.1-4.5,12c0,0,1,5,23,16.4"/>
				<path id="XMLID_69_" class="st5" d="M89.3,94.5c0,0,1.9,5.4,7,7.3c0,0,1,3.6,9.9,8.1c0,0,9.7,5.9,8.6,7c0,0-10.5-7.2-10.7-7
					c0,0-9.5-5.6-8.6-6.9c0,0-9-2.6-9-5.1L89.3,94.5z"/>
				<path id="XMLID_68_" class="st5" d="M146.7,109.6c-11.9-2.5-19.7-16-19.7-16l-2.5,1.6l-3.3,3.5l9.4,7c6.9,6.6,10.7,4.2,10.7,4.2
					L146.7,109.6z"/>
			</g>
		</g>
		<g id="sombra_pasta_4_">
			<path id="XMLID_67_" class="st6" d="M65.5,69.8c0,0,0.7-2.6-1.1-4.1c0,0-3.7,10.3-4.5,9.5c0,0-2.9-8.3,3.6-11.8
				C63.5,63.4,69.2,62.8,65.5,69.8z"/>
			<path id="XMLID_66_" class="st6" d="M75.2,85.8l0.4-2.6c0,0,0.7-2.5-3.4-1.9s-4-0.1-4-0.1v-1.8c0,0-3.2-3.3-1.5-8
				c0,0-6,3.7,0.4,10.8c0,0,8.2,4.8,8.6,2.6"/>
			<path id="XMLID_65_" class="st6" d="M61,91.2c0,0,1.6-10.2,13.9-2.2c0,0-11-10.2-12.8-1.6C62.1,87.3,58.1,81.3,61,91.2z"/>
			<path id="XMLID_64_" class="st6" d="M89,93.6c14.9,4.9,14.2,5.1,14.2,5.1c0.9,1.8,6.2,0,6.2,0c5.8,2.4,5.7,0,5.7,0
				c4.2,1.6,6.2-1.6,6.2-1.6c6.6-9,15.6-5.8,15.6-5.8c-4.8-1-13.4,5.2-13.4,5.2c-2.3,5.2-7.6,3.6-7.6,3.6c-0.7,4.5-7-0.3-7-0.3
				c-3.3,2.1-5.8,0.5-5.8,0.5c-5.6,2.5-12.7-4.6-12.7-4.6S87.2,93,89,93.6z"/>
			<path id="XMLID_63_" class="st6" d="M103.9,92.5c0,0-1.5,3.2-2.4,0c0,0-2.2-8.7,2.4-3.7c0,0,1.8,1.7,2.4,0.8
				C106.2,89.6,108.6,102.2,103.9,92.5z"/>
			<path id="XMLID_62_" class="st6" d="M110.1,94.2c0,0-0.7,1-1.8-0.7c0,0-3-9.9,0.5-2.1C108.8,91.5,111.3,94.2,110.1,94.2z"/>
			<path id="XMLID_61_" class="st6" d="M112.5,89c0,0,3.6,1,4.2-9.6c0,0,2.6-6.6,9.4-1c0,0,0.4-6.6,4.8,2.9c0,0-0.8,6.6-3.6,7.8
				c0,0,4.1,2.1,4.7-2.5c0,0,1.4-11.3-4.1-13.8l-3.9,0.5c0,0-6.6-7.2-11.6,6.1L112.5,89L112.5,89z"/>
			<path id="XMLID_60_" class="st6" d="M121.2,87.5c0,0,3,1.6-4.8,5.4c0,0-0.8,6.3,7.6-1.8c0,0-4.6,1.1-0.7-3.3
				c0,0,1.8-13.7-3.4-4.7C120,83.2,116.9,82.3,121.2,87.5z"/>
			<path id="XMLID_59_" class="st6" d="M70.9,114.1c0,0-6.7-9.1-5.5-10.1c-0.7-4.2-12.6-12.2-1.6,11.8c0,0-5,12.1,5.3,13.1
				c0,0,19.8,16.3,47.3,6.8c1.1,2.5,19.5-2.1,24.4-18c0,0,9.1-10.7-1-1.4c0,0-5,11-21.2,15.6c0,0-23.1,10.4-45.5-3.9
				c0,0-10.7-2.9-7.5-12.2c0,0-3.9-13.7-1.3-11.2C64.2,104.6,65.1,112.2,70.9,114.1z"/>
			<path id="XMLID_58_" class="st6" d="M139.1,116.4c0,0,2.4,2.1-5.1,0.5c0,0,1.6,2.4-4.5,6.7c0,0,4.7-7.2,3.1-7.8
				c0,0,0.5-1.5,1.9-0.7L139.1,116.4z"/>
			<path id="XMLID_57_" class="st6" d="M89.6,120.4c0,0-16.3-1.1-17.3-4.2c0,0,8,2.5,10.8,0c0,0,6.3-1.1,14.5,5c0,0,1.7,1.3,5.1,0.6
				c0,0-0.9,2.2,6.6,0c0,0,3.1,0.4,5.8-1.3c0,0,0.4,5.6-4.6,3.3c0,0-5.4,3.3-7.8,1C102.6,124.6,98.8,127.5,89.6,120.4z"/>
			<path id="XMLID_56_" class="st6" d="M125,123.9c0,0-1-2.1-6-2.2C119,121.7,122.9,125.9,125,123.9z"/>
			<path id="XMLID_55_" class="st6" d="M70,122c0,0-1.6,0.8,1.8,3.7c0,0-9.6,0-4.4-11.4c0,0,0.8,4.5,7.5,7.5c0,0,5.4,8.3-5.7,0.3"/>
			<path id="XMLID_54_" class="st6" d="M101.9,127.5"/>
			<path id="XMLID_53_" class="st6" d="M105.1,128.5c0,0-0.1-3.4-4.2-1c0,0-4.2,4-3.3,5c0,0,3.4-1.1,1.9,1c0,0,2.7,1.5,5.8-5.4"/>
			<path id="XMLID_52_" class="st6" d="M112.2,125.6c0,0-6.6,4.2-6.9,7.2c0,0,3.7-2.4,1.6,1.6c0,0,11,0.7,6.9-6.4L112.2,125.6z"/>
			<path id="XMLID_51_" class="st6" d="M97.5,126.7c0,0-5.6-1.3-5-2l-2,2c0,0-0.6-2,1.4-3.6c0,0,4.5-1.2-2.4-1.4c0,0-6,6.9,0.4,1.4
				c0,0-4.3,9.7,2.8,3.6C92.8,126.6,97.7,129.4,97.5,126.7z"/>
		</g>
		<g id="choco_negro_4_">
			
				<linearGradient id="XMLID_2_" gradientUnits="userSpaceOnUse" x1="39.3499" y1="110.217" x2="169.5567" y2="110.217" gradientTransform="matrix(1 0 0 -1 0 200.11)">
				<stop  offset="0" style="stop-color:#030104"/>
				<stop  offset="1" style="stop-color:#030104"/>
			</linearGradient>
			<path id="XMLID_46_" class="st7" d="M169.4,124.7c0.1-1.1-1.1-2.5-3.8-4.1c-0.9-0.3-2.2-0.7-3.7-1.1c-1.1-0.3-2.8-0.7-5.4-1
				c-2.3-0.3-5.7-0.6-10.1-0.6c-0.8-3.6-1.3-6.6-1.6-8.9c-0.7-5.6-1-8.5-0.4-12.3c0.4-2.5,0.9-2.8,0.9-4.7c0-3.6-1.6-5.4-0.5-7.3
				c0.6-1,1.3-0.7,2.3-1.9c0.6-0.7,1.1-2.1,1.8-6.1c1.3-7.6-3.6-13.6-3.6-13.6c-1.7-4.7-11.9-10.7-11.9-10.7
				c-5.7-1.5-6.1-4.8-6.1-4.8c4-5.5-12.3-12.2-12.3-12.2c-2.5-2.3-10.4-1.5-10.4-1.5c-11.5-1.1-13,2.2-13.1,3.5
				c-1-0.1-2.5,0-4.2,0.5c-2.8,0.9-4.6,2.6-6.6,4.6c-2.4,2.4-1.9,2.6-3.9,4.5c-1.9,1.9-3.7,2.9-7.2,4.8c-4.2,2.3-7.2,3.5-7.7,5.6
				c0,0,0,0.1-0.5,2.4c-0.4,0.8-0.8,1.9-1.3,3.1c-0.7,1.6-0.5,2.6-1.3,3.6c-0.6,0.7-1,0.7-1.5,1.1c-1.9,1.5-1.2,5.4-1,6.6
				c0.8,5.5-1.3,5.7-1.5,14.4c-0.1,3.2,0.1,7.9,1.5,13.6c1.6,16.1-1,20.9-3.7,22.4c-0.1,0.1-0.1,0-4.8,1.9c-5.6,2.2-6.9,2.7-7.7,4.2
				c-0.9,1.7-0.5,3.7-0.1,4.9c1,0.9,2.6,2,4.8,2.8c2,0.7,3.7,1,5.5,1.1c6.2,0.4,11.2,0.1,11.6,0c3.1-0.3,7.2-0.8,12-1.9
				c1.8,1,4.7,2.3,8.3,2.9c6.3,0.9,9.2-1.3,15-0.7c5,0.6,6.1,3,11,4.5c4.9,1.6,11.8,2.6,21.8,0.8c0.7-0.2,1.6-0.6,2.7-1.5
				c1.4-1.2,2-2.7,2.2-3.4c5.9-0.3,11.8-0.6,17.7-0.9c0.5,0,2.8-0.1,4.6-1.9c1-1,1.5-2.2,1.7-2.9c-0.2-0.7-0.4-1.4-0.7-1.9
				c-1.9-3.1-5.9-3.5-6.6-3.6C163,128.4,169.1,127,169.4,124.7z M79.3,117.6c-0.2,1.5-0.4,2.2-0.6,3.7c-0.6,4.7,0,8.5,0.6,11
				c-1.1-0.7-2.1-1.1-2.8-1.3c-1.1-0.2-2.4-0.1-2.6-0.7c-0.1-0.1,0-0.2,0-0.4c0.1-1.8-7-3.9-8.1-3.2c-0.1,0-0.3,0.2-0.4,0.1
				c-0.1-0.1,0-0.4,0-0.7c0.1-0.8-0.5-1.6-0.7-1.9c-0.8-1.2-0.3-3-0.2-4.8c0-1.3-0.1-3.3-1.3-5.7c-0.9-1.5-1.9-3.7-2.4-6.4
				c-0.3-1.5-0.4-2.8-0.3-3.9c2.1-15.1-0.6-15.7-0.6-15.7c-0.9-3.6-2.3-11.1,1.1-18.9c0.7-1.8,1.7-3.3,2.6-4.6
				c0.1-0.1,1.9-1.4,3.2-0.7c0.7,0.4,1,1,1.5,2.4c0.4,1.3,0.9,2.3,0.5,3.6c-0.3,1-1,1.7-1.5,2.1c-0.2,0.7-0.4,1.9,0,3.2
				c0.7,2.3,2.6,2.5,5.1,5.4c2.2,2.5,2.8,4.9,3,5.4c0.4,1.3,0.4,2,0.5,3.7c0.1,1.8,0.4,4.4,1.1,7.6c-0.1,0.9-0.4,2.8,0.1,4.7
				c0.3,1,0.9,2.1,0.9,2.2c0.3,0.6,0.5,1,0.7,1.3C79.9,110.7,79.8,114.9,79.3,117.6z M116.4,126.2c-0.5,8-0.5,8-0.5,8
				c-6.6,3-11.2,3.2-13.9,3c-1.3-0.1-4.2-0.4-6.5-0.7c-6.9-0.8-5.4-0.8-6.2-0.9c-1.6-0.1-2.2,0.1-2.8-0.5c-1-0.9-0.4-2.4-0.5-4.7
				c0-2.2-0.4-2.5-1.1-5.7c0,0-1.5-6.7,0-16.8c0.5-3.4,2,0,5.8-13.6c0.5-2.3,1.5-3.1,2.2-3.5c1.2-0.5,2.1,0.2,3.7-0.5
				c0.3-0.1,1-0.7,2.2-1.7c0,0,0.6-0.5,2.6-2.2c0.4-0.2,3.1-1.2,5.4,0.1c0.3,0.2,1.2,0.7,2,2.2c1.6,2.8,1.3,5.7,1.3,6.5
				c-0.2,2.7,0.3,7,3.6,13.8C113.6,108.8,116.9,118.2,116.4,126.2z M118.5,133.9c0,0,1.3-21.8-3.2-30.4c0,0-2.8-13.6-2-15.8
				c0,0,1.7-3.7,0-8.4c0,0,3.5-2.2,4.7-5.4c0.2-0.3,0.4-0.7,0.7-1c0,0,1.5-1.9,4.9,1.2c0,0,6.2-1.3,8,4c0,0,6-1.1,5.2,14.3
				c0,0,4.4,4.5,4.1,8.9c0,0-1.6,5.2,1.9,12.2C142.7,113.4,137.3,130.9,118.5,133.9z"/>
		</g>
		<g id="choco_medio_4_">
			<path id="XMLID_45_" class="st8" d="M104.3,41.2c0,0,1.9-1.2,0.6-3.3c0,0-7.1-7.5-12.1,1c0,0,1.1,2,3.6,3.5c0,0-0.2,1.3-5-2.6
				c0,0-0.4,6-7.4,13.8c0,0-3.4,2.2-4.8,0.7c0,0,6.6,3.6-2.5,15.4l7.3-3.9c0,0-2.1-5.8,4.2-9.9c0,0,13.2-1.5,10.6-11
				c0,0,4.8,0,4-3.3L104.3,41.2z"/>
			<path id="XMLID_44_" class="st8" d="M85.7,67.8c0.1-0.5,1.1-6.5,4.3-2.3c4.9,6.3,10.7,8.4,10.7,8.4l6.3,3.3
				c0,1.6-5.3,6.6-16.4-1.3C90.6,76,87.2,74.6,85.7,67.8"/>
			<path id="XMLID_43_" class="st8" d="M135.2,66.4c-0.4,0.1,0.5,2.2-5.1,0l7.2,8.6l1,2.5c0,0-5.1-0.4-13.3-6.9c0,0-7.7-3.3-8.6,2.5
				c0,0-7.8,5.3-16.3-2.6c0,0,18,3.9,11.6-1.7c0,0-13.4-2.1-17.7-9c0,0-3.3-4.5,3.4-1.9c0,0,7.3,4.5,5.8-1.9c0,0-2.2-3,2.1-1.4
				c0,0,1.6,3.7,17.4,0.7c0,0,1.6,4.1-0.3,4.2c0,0-6.3,2.8-9,0.2c0,0-3.4-1-0.3,1.5c0,0,7,2.2,15.5,0c0,0,1.9,3.7,6.6,4.9"/>
			<path id="XMLID_42_" class="st8" d="M82,109.6c0,0,0.1-2.4-1.6,0c0,0,1.9,9.6,0,12.9c0,0,1,12.5-2.5,11.9c0,0-7.9-5-17.7-3.6
				c0,0,3.6-1.9,2.5-7c0,0-0.4-7.1-1.7-11.2c0,0-0.8-2.5-0.7,0c0,0-1.1,16.2-8,16.8c0,0-12.2,2.6,0,4.8c0,0,9.4-3.1,19.4,0.9
				c0,0,11.9,6.2,17.9,3.6c0,0-9.1-1-8-3.6c0,0,1.9-1.2,1.6-6c0,0-1.3-7.1-0.2-8.5C83.1,120.6,84.1,120.7,82,109.6z"/>
			<path id="XMLID_41_" class="st8" d="M110.6,89.6c0,0,1,14.2,2.1,15c0,0,3.9,9.6,3.7,17.3c0,0,0.7,11.3,0,12.5
				c0,0,0.6,2.8-5.8,2.2c0,0,10.9,3.4,11.9-2.2c0,0-4.9,1.3-4.4,0c0.5-1.2-0.2-28.4-4.5-29.3c0,0-1.9-4.2-1.7-15.5
				C111.8,89.6,111.1,82.8,110.6,89.6z"/>
			<path id="XMLID_40_" class="st8" d="M108.6,139.3c0,0-5.1-1-1.6,1.6c0,0,21.5,7.5,24.9-1.6c0,0,1.7-3.2-2.3-2.2
				C129.6,137.1,119.1,141.7,108.6,139.3z"/>
			<path id="XMLID_39_" class="st8" d="M146.8,131.1c0,0,10.8,3.7,3.9,4c0,0-9.7,0.6-15.8-2c0,0,0.3-1.6,5.1-0.6c0,0,15.7,2.1,5.3-1
				C145.2,131.5,141.1,129.8,146.8,131.1z"/>
			<path id="XMLID_38_" class="st8" d="M162.1,121.4c-0.2-0.2-2.7-2.3,2.2,0c0,0,3.4,2.7-2.1,3.9c0,0-14.3,0.9-16.4-0.6
				c0,0-5.2-1.6,7.2-1.7C153,123,165.9,124.6,162.1,121.4z"/>
		</g>
		<g id="blanco_medio_4_">
			
				<linearGradient id="XMLID_3_" gradientUnits="userSpaceOnUse" x1="62.0872" y1="140.4608" x2="82.4816" y2="140.4608" gradientTransform="matrix(1 0 0 -1 0 200.11)">
				<stop  offset="0" style="stop-color:#BEC8D2"/>
				<stop  offset="1" style="stop-color:#666163"/>
			</linearGradient>
			<path id="XMLID_37_" class="st9" d="M64.9,55.8c0,0-2.8,1.3-2.8,4c0,0,2,0.1,5.7,1.3c0,0,6.2,3.7,9.5-1.6c0,0,3.1,0.4,0.5,2.9
				c0,0-1.6,2.1-8.1,2.3c0,0,0.9,3.6,0.1,5.7c0,0,8.3,1.3,10.7-6c0,0,2.2-2,2-7.5c0,0-5.2-2-5.4-8C77,48.9,68.3,59,64.9,55.8z"/>
			
				<linearGradient id="XMLID_86_" gradientUnits="userSpaceOnUse" x1="80.0972" y1="153.9074" x2="93.5208" y2="153.9074" gradientTransform="matrix(1 0 0 -1 0 200.11)">
				<stop  offset="0" style="stop-color:#BEC8D2"/>
				<stop  offset="1" style="stop-color:#666163"/>
			</linearGradient>
			<path id="XMLID_36_" class="st10" d="M90.5,42.3c0,0,0.9-7.2-4.5-3.1c0,0-6.2,3.6-6,8.4c0,0,2,3.5,5.2,1.3c0,0-8,3-3.5,3.9
				c0,0,0.6,1.9,4.6,1.6c0,0,0-2.8,4.2-2.8c0,0-0.3-3.9,2.9-7.7C93.5,43.8,90.5,44.2,90.5,42.3z"/>
			
				<linearGradient id="XMLID_87_" gradientUnits="userSpaceOnUse" x1="56.0905" y1="129.5481" x2="58.1116" y2="129.5481" gradientTransform="matrix(1 0 0 -1 0 200.11)">
				<stop  offset="0" style="stop-color:#BEC8D2"/>
				<stop  offset="1" style="stop-color:#666163"/>
			</linearGradient>
			<path id="XMLID_35_" class="st11" d="M58.1,67.8c0,0-3.7-0.4-1.1,5.4h1.1V67.8z"/>
			
				<linearGradient id="XMLID_88_" gradientUnits="userSpaceOnUse" x1="41.7209" y1="87.5151" x2="67.1467" y2="87.5151" gradientTransform="matrix(1 0 0 -1 0 200.11)">
				<stop  offset="0" style="stop-color:#BEC8D2"/>
				<stop  offset="1" style="stop-color:#666163"/>
			</linearGradient>
			<path id="XMLID_34_" class="st12" d="M65.2,134.6L50,133.8c0,0-7.1-2.4,0-4c0,0,6.7,0.7,9.9-11.2c0,0-1.3-10.3-0.9-15.4
				c0,0-1.6-7.3-1-14.3c0,0-0.7-2.4-1,0c0,0-1.3,6,1,13.9c0,0,0.7,16.2-2.1,20.1c0,0-2.7,5.6-12.1,6c0,0-6.3,4.5,2.5,5.6
				c0,0,5.6,4.5,15.7,2C62.1,136.5,71.1,135.7,65.2,134.6z"/>
			
				<linearGradient id="XMLID_89_" gradientUnits="userSpaceOnUse" x1="73.5221" y1="65.1033" x2="73.5221" y2="65.1033" gradientTransform="matrix(1 0 0 -1 0 200.11)">
				<stop  offset="0" style="stop-color:#BEC8D2"/>
				<stop  offset="1" style="stop-color:#666163"/>
			</linearGradient>
			<path id="XMLID_33_" class="st13" d="M73.5,135"/>
			
				<linearGradient id="XMLID_90_" gradientUnits="userSpaceOnUse" x1="70.9379" y1="63.4189" x2="90.0568" y2="63.4189" gradientTransform="matrix(1 0 0 -1 0 200.11)">
				<stop  offset="0" style="stop-color:#BEC8D2"/>
				<stop  offset="1" style="stop-color:#666163"/>
			</linearGradient>
			<path id="XMLID_32_" class="st14" d="M73.5,135c0,0-5.8-2.6,0,1.3c0,0,5.6,3.9,14,2.8c0,0,5.6-0.7,0-1.3
				C87.5,137.8,84.3,139.3,73.5,135z"/>
			
				<linearGradient id="XMLID_91_" gradientUnits="userSpaceOnUse" x1="77.6032" y1="78.2314" x2="82.0355" y2="78.2314" gradientTransform="matrix(1 0 0 -1 0 200.11)">
				<stop  offset="0" style="stop-color:#BEC8D2"/>
				<stop  offset="1" style="stop-color:#666163"/>
			</linearGradient>
			<path id="XMLID_31_" class="st15" d="M80.5,109.6c0,0,0.9,11,0,12.4l-0.4,9.2c0,0,0.1,1.5-2.5,2.8c0,0,3.6,0.6,3.9-0.7
				c0,0,0.6-0.1,0-8.1c0,0,0-1.5,0.3-4.2c0,0,0.7,1-0.3-11.6L80.5,109.6L80.5,109.6z"/>
			
				<linearGradient id="XMLID_92_" gradientUnits="userSpaceOnUse" x1="94.6423" y1="161.1958" x2="104.0847" y2="161.1958" gradientTransform="matrix(1 0 0 -1 0 200.11)">
				<stop  offset="0" style="stop-color:#BEC8D2"/>
				<stop  offset="1" style="stop-color:#666163"/>
			</linearGradient>
			<path id="XMLID_30_" class="st16" d="M99,37.4c0,0-8,0.6-2.4,3.7c0,0,5.6,2.2,7.5-1.9C104.1,39.2,103.6,33.8,99,37.4z"/>
			
				<linearGradient id="XMLID_93_" gradientUnits="userSpaceOnUse" x1="79.411" y1="125.8558" x2="79.411" y2="125.8558" gradientTransform="matrix(1 0 0 -1 0 200.11)">
				<stop  offset="0" style="stop-color:#BEC8D2"/>
				<stop  offset="1" style="stop-color:#666163"/>
			</linearGradient>
			<path id="XMLID_29_" class="st17" d="M79.4,74.3"/>
			
				<linearGradient id="XMLID_94_" gradientUnits="userSpaceOnUse" x1="75.3874" y1="110.7406" x2="99.1898" y2="110.7406" gradientTransform="matrix(1 0 0 -1 0 200.11)">
				<stop  offset="0" style="stop-color:#BEC8D2"/>
				<stop  offset="1" style="stop-color:#666163"/>
			</linearGradient>
			<path id="XMLID_28_" class="st18" d="M77.6,86.3c0,0,2.1,0.9,1.1,3.9c0,0,6.5-5-2.6-7.6c0,0-2.6-2.8,2.4-3c0,0-7.6-6.1,0.9-5.4
				c0,0,0.3-1.3,14.1,5.6c0,0,6.9,2.5,5.5,3c0,0-5.1,4.8-17,1.5c0,0,0.1,2,9.6,3.6c0,0-3.7,7.4-8,5.7c0,0-2.2,0.8,1.5,2.7
				c0,0-2.6,2.2-4,7.1c0,0-1.1,3.2-3.2-0.6c0,0-0.4-0.2,0-8C78,94.8,76.7,91.8,77.6,86.3"/>
			
				<linearGradient id="XMLID_95_" gradientUnits="userSpaceOnUse" x1="110.0682" y1="154.3798" x2="117.808" y2="154.3798" gradientTransform="matrix(1 0 0 -1 0 200.11)">
				<stop  offset="0" style="stop-color:#BEC8D2"/>
				<stop  offset="1" style="stop-color:#666163"/>
			</linearGradient>
			<path id="XMLID_27_" class="st19" d="M116.6,46.8c0,0,3.9-2.2-2.4-3.7c0,0-6.5-0.4-3.4,4.3c0,0,4.1,2.8,5.7-1.3"/>
			
				<linearGradient id="XMLID_96_" gradientUnits="userSpaceOnUse" x1="129.9879" y1="118.7973" x2="142.0979" y2="118.7973" gradientTransform="matrix(1 0 0 -1 0 200.11)">
				<stop  offset="0" style="stop-color:#BEC8D2"/>
				<stop  offset="1" style="stop-color:#666163"/>
			</linearGradient>
			<path id="XMLID_26_" class="st20" d="M131.9,68.3c0,0-2.6-4.8-1.7,1c0,0,6.7,7.7,7.1,5.7c0,0,1.3,6.1,1.1,17.3c0,0,0.1,6,3.4,3.2
				c0,0,1.1-0.6-1.1-3.4c0,0,1.1-4.5-1.1-10.8c0,0-0.6-2.8-0.2-5.4c0,0,0.8,2.1,2.8,1.3c0,0,1-1.9-2.9-2.8
				C139.1,74.3,135,73.1,131.9,68.3z"/>
			
				<linearGradient id="XMLID_97_" gradientUnits="userSpaceOnUse" x1="107.5584" y1="57.4388" x2="132.5303" y2="57.4388" gradientTransform="matrix(1 0 0 -1 0 200.11)">
				<stop  offset="0" style="stop-color:#BEC8D2"/>
				<stop  offset="1" style="stop-color:#666163"/>
			</linearGradient>
			<path id="XMLID_25_" class="st21" d="M107.6,141.6c0,0,19.6,9.5,25-1.7c0,0-5.5,6.1-24.4,2.1"/>
			
				<linearGradient id="XMLID_98_" gradientUnits="userSpaceOnUse" x1="130.6717" y1="64.4099" x2="153.2532" y2="64.4099" gradientTransform="matrix(1 0 0 -1 0 200.11)">
				<stop  offset="0" style="stop-color:#BEC8D2"/>
				<stop  offset="1" style="stop-color:#666163"/>
			</linearGradient>
			<path id="XMLID_24_" class="st22" d="M132.6,135c0,0-4.2-0.9,0,1.6c0,0,5.4,1.1,8.6-0.5c0,0,8.7,1.3,10.1,0.5
				c0,0,4.2-0.5,0.5-1.6c0,0-13.6-1.7-12.8,0.2C138.9,135.4,135.6,135.8,132.6,135z"/>
			
				<linearGradient id="XMLID_99_" gradientUnits="userSpaceOnUse" x1="142.2346" y1="74.5423" x2="165.4826" y2="74.5423" gradientTransform="matrix(1 0 0 -1 0 200.11)">
				<stop  offset="0" style="stop-color:#BEC8D2"/>
				<stop  offset="1" style="stop-color:#666163"/>
			</linearGradient>
			<path id="XMLID_23_" class="st23" d="M143.4,124.6c0,0-2.5,0.7,0,1.9c0,0,8.6,0.2,20-0.2c0,0,6.9-0.6-4-1.2L143.4,124.6z"/>
			
				<linearGradient id="XMLID_100_" gradientUnits="userSpaceOnUse" x1="88.9525" y1="132.4901" x2="88.9525" y2="132.4901" gradientTransform="matrix(1 0 0 -1 0 200.11)">
				<stop  offset="0" style="stop-color:#BEC8D2"/>
				<stop  offset="1" style="stop-color:#666163"/>
			</linearGradient>
			<path id="XMLID_22_" class="st24" d="M89,67.6"/>
			
				<linearGradient id="XMLID_101_" gradientUnits="userSpaceOnUse" x1="88.2816" y1="132.2665" x2="88.2816" y2="132.2665" gradientTransform="matrix(1 0 0 -1 0 200.11)">
				<stop  offset="0" style="stop-color:#BEC8D2"/>
				<stop  offset="1" style="stop-color:#666163"/>
			</linearGradient>
			<path id="XMLID_21_" class="st25" d="M88.3,67.8"/>
			
				<linearGradient id="XMLID_102_" gradientUnits="userSpaceOnUse" x1="86.4481" y1="127.9085" x2="106.2306" y2="127.9085" gradientTransform="matrix(1 0 0 -1 0 200.11)">
				<stop  offset="0" style="stop-color:#BEC8D2"/>
				<stop  offset="1" style="stop-color:#666163"/>
			</linearGradient>
			<path id="XMLID_20_" class="st26" d="M106.2,76.6c0,0-15.4-6.6-19.8-10.5c0,0-0.4,6.3,6.2,10.3C92.6,76.3,103.6,80.7,106.2,76.6z
				"/>
		</g>
		<g id="blanco_intenso_4_">
			<path id="XMLID_19_" class="st27" d="M101.5,38.5c0,0-2.4-2.6-3.9,0.5C97.6,39,101.1,41.5,101.5,38.5z"/>
			<path id="XMLID_18_" class="st27" d="M86.2,46.8c-4.3-4,0-6.9,0-6.9c5.2-2.2,1,0.9,1,0.9s-2.1,1.9,2.1,5.4c0,0-0.5,6.3-7.8,5.8
				c0,0-2.8-1.1,1-1.7C82.5,50.3,88.5,49,86.2,46.8z"/>
			<path id="XMLID_17_" class="st27" d="M66.4,57.9c0,0-6.5,0.6,0,1.6c0,0,10.7,2.6,11-4.2c0,0,0.2-6.1-2.1,0
				C75.2,55.2,74.3,58.7,66.4,57.9z"/>
			<path id="XMLID_16_" class="st27" d="M71.5,68.4c0,0-1.5-0.5,0-2.5c0,0,5.8,0.2,8.2-6c0,0,1.3-2.8,0.7,0.9
				C80.5,60.8,76.7,68.1,71.5,68.4z"/>
			<path id="XMLID_15_" class="st27" d="M57.1,68.4l1,0.9l-0.5,2.1h-1.3C56.3,71.4,56.1,68.6,57.1,68.4z"/>
			<path id="XMLID_14_" class="st27" d="M50,128.7c0,0-10.4,2.7,0,5.7c0,0,3.2,0.5,0,1.3c0,0-16.6-4.6-1.6-7.5
				C48.4,128.3,53.3,127.4,50,128.7z"/>
			<path id="XMLID_13_" class="st27" d="M75.8,135.9c0,0,4.9,2.8,8.9,2.2C84.6,138,79,139.7,75.8,135.9z"/>
			<path id="XMLID_12_" class="st27" d="M78.4,115.2c0,0-8.7-2.5-11.2-10.5c0,0,6.1,7.8,11.2,8.6c0,0-14-8.9-16.3-24.6
				c0,0-4,1.3,3.4,15.5C65.5,104.1,68.8,115.6,78.4,115.2z"/>
			<path id="XMLID_11_" class="st27" d="M74,89.4c-3.1,6.6,2.6,10.2,2.6,10.2c-1.2-1.5,0-2.8,0-2.8S75.5,86.3,74,89.4z"/>
			<path id="XMLID_10_" class="st27" d="M113.8,119.9c0,0-9.1-1.5-13.6-6.2c0,0-8.1-4.2-13.8-8c0,0,1.9,4.5,12.6,8.8
				C99,114.5,105.6,121.6,113.8,119.9z"/>
			<path id="XMLID_9_" class="st27" d="M113.8,109.1c0,0-2.5,0.1-6.2-3.4c0,0,1.3,1.6-3.7-1.1C103.9,104.6,112.3,112.4,113.8,109.1z
				"/>
			<path id="XMLID_8_" class="st27" d="M130,117.9c0,0-2.8-0.2-10.9-5.8c0,0-2.1-0.7,0,1.5c0,0,2.5-1,7.2,8.4
				C126.3,122,126.6,117.1,130,117.9z"/>
			<path id="XMLID_7_" class="st27" d="M139.9,112.9c0,0-4.1,1.2-7.3-3.1C132.6,109.9,135.8,116.9,139.9,112.9z"/>
			<path id="XMLID_6_" class="st28" d="M82.5,76.1c0,0-6.4-0.6-4.8,1.3c1.5,1.9,3,1.9,3,1.9S86,78.9,82.5,76.1z"/>
			<path id="XMLID_5_" class="st28" d="M79.4,80.4c0,0-3.4-0.2-2.5,1.9C76.9,82.2,83.3,81.9,79.4,80.4z"/>
			<path id="XMLID_4_" class="st28" d="M91.1,74.2c0,0-2.8-1.9-4.3-7.1S91.1,73.1,91.1,74.2z"/>
			<path id="XMLID_84_" class="st28" d="M78.4,91.4c0,0,3.7-1.6,3.7-4.3C82,84.3,83.2,92.3,78.4,91.4z"/>
			<path id="XMLID_85_" class="st28" d="M78,134.3c0,0,2.6-1.3,2.5-4.5C80.3,126.5,83,134.9,78,134.3z"/>
		</g>
	</g>
</g>
</svg>
