<?xml version="1.0" encoding="utf-8"?>
<!-- Generator: Adobe Illustrator 19.0.0, SVG Export Plug-In . SVG Version: 6.00 Build 0)  -->
<svg version="1.1" xmlns="http://www.w3.org/2000/svg" xmlns:xlink="http://www.w3.org/1999/xlink" x="0px" y="0px"
	 viewBox="0 0 192 192" style="enable-background:new 0 0 192 192;" xml:space="preserve">
<style type="text/css">
	.st0{fill:#BCA469;}
	.st1{fill:#D5E0DA;}
	.st2{fill:#B5B6A4;}
	.st3{fill:#A1976C;}
	.st4{fill:#925C16;}
	.st5{fill:url(#SVGID_1_);}
	.st6{fill:#522413;}
	.st7{fill:url(#SVGID_2_);}
	.st8{fill:url(#SVGID_3_);}
	.st9{fill:url(#SVGID_4_);}
	.st10{fill:url(#SVGID_5_);}
	.st11{fill:url(#SVGID_6_);}
	.st12{fill:url(#SVGID_7_);}
	.st13{fill:url(#SVGID_8_);}
	.st14{fill:url(#SVGID_9_);}
	.st15{fill:url(#SVGID_10_);}
	.st16{fill:url(#SVGID_11_);}
	.st17{fill:url(#SVGID_12_);}
	.st18{fill:url(#SVGID_13_);}
	.st19{fill:url(#SVGID_14_);}
	.st20{fill:url(#SVGID_15_);}
	.st21{fill:url(#SVGID_16_);}
	.st22{fill:url(#SVGID_17_);}
	.st23{fill:url(#SVGID_18_);}
	.st24{fill:url(#SVGID_19_);}
	.st25{fill:#FFFFFF;}
	.st26{fill:#FCFCFC;}
</style>
<g id="pasta_y_nata">
	<g>
		<path class="st0" d="M150.5,107.1c0,0-2.2,7,2.5,16.3c0,0-7.2,23.5-32.5,27.5c0,0,1.8-29.3-4.3-40.8c0,0-3.7-18.3-2.7-21.2
			c0,0,2.3-5,0-11.3c0,0,4.7-3,6.3-7.3c0.3-0.4,0.6-0.9,0.9-1.3c0,0,2-2.6,6.6,1.6c0,0,8.3-1.7,10.7,5.3c0,0,8-1.5,7,19.2
			C145,95.1,151,101.1,150.5,107.1z"/>
		<path class="st0" d="M75.4,138.4c0,0-2-9,0-22.5c0.7-4.5,2.7,0,7.8-18.3c0.7-3.1,2-4.2,3-4.7c1.6-0.7,2.8,0.3,5-0.7
			c0.4-0.2,1.3-0.9,3-2.3c0,0,0.8-0.7,3.5-3c0.6-0.3,4.2-1.6,7.2,0.2c0.4,0.3,1.6,1,2.7,3c2.1,3.8,1.7,7.7,1.7,8.7
			c-0.3,3.6,0.4,9.4,4.8,18.5c0,0,4.3,12.7,3.7,23.3c-0.7,10.7-0.7,10.7-0.7,10.7c-8.9,4-15,4.3-18.7,4c-1.7-0.1-5.6-0.6-8.7-1
			c-9.3-1.1-7.2-1.1-8.3-1.2c-2.1-0.1-3,0.1-3.8-0.7c-1.3-1.2-0.6-3.2-0.7-6.3C76.8,143.3,76.2,142.7,75.4,138.4z"/>
		<path class="st0" d="M46.7,57.6c-1.2,1.7-2.5,3.8-3.5,6.2c-4.6,10.4-2.7,20.5-1.5,25.3c0,0,3.7,0.8,0.8,21c0,1.5,0.1,3.3,0.4,5.2
			c0.7,3.7,2.1,6.7,3.2,8.6c1.4,3.3,1.7,5.9,1.7,7.7c-0.1,2.5-0.7,4.9,0.3,6.5c0.3,0.5,1.2,1.5,1,2.6c-0.1,0.3-0.2,0.8,0,0.9
			c0.2,0.1,0.5-0.1,0.6-0.1c1.6-0.9,11.1,1.9,10.9,4.3c0,0.2-0.1,0.3,0,0.5c0.3,0.8,2,0.7,3.5,1c1,0.2,2.3,0.6,3.8,1.7
			c-0.8-3.4-1.6-8.6-0.8-14.8c0.3-2.1,0.6-3,0.8-5c0.5-3.8,0.8-9.3-0.8-16.5c-0.3-0.4-0.7-1-1-1.8c-0.1-0.2-0.8-1.6-1.2-3
			c-0.7-2.5-0.4-5-0.2-6.3c-0.9-4.3-1.3-7.7-1.5-10.2c-0.2-2.3-0.2-3.3-0.7-5c-0.2-0.7-1.1-3.9-4-7.3c-3.3-4-5.9-4.2-6.8-7.3
			c-0.5-1.7-0.3-3.3,0-4.3c0.6-0.5,1.6-1.4,2-2.8c0.5-1.7,0-3.2-0.7-4.8c-0.6-1.7-1-2.7-2-3.2C49.2,55.7,46.9,57.5,46.7,57.6z"/>
	</g>
	<path id="nata" class="st1" d="M62.7,90.1c-1.5,1.7-11.9-4.8-11.9-4.8c-5.3-4.7-6,6.2-6,6.2v0.8c-1.6,3.8-1.6,15.3-1.6,15.3
		c1.9-3.5,5.7,3.3,5.7,3.3c-3.7-0.7,6.7,13.2,6.7,13.2c1.2,4.8,10.6,3.7,10.6,3.7c12.7,9.1,12,1.6,12,1.6c-2.8-4.8,5.8-0.2,5.8-0.2
		c11.7,8.2,15.2,5.3,15.2,5.3c3.8,3.1,8.8,0,8.8,0c5.5,2.4,5.9,0,5.9,0c3.7-4.2,9.9,0,9.9,0c-0.7-2.9,5,2.6,5,2.6
		c12,0.9,10-11.7,10-11.7c15.2,6.5,18.8-5,18.8-5c-1.7-0.3,4.7-7,4.7-7c1.5-1.8-5.7-15.2-5.7-15.2c4.3,0.2,5.7-6,5.7-6
		c-6-11.5-2.8-13.5-2.8-13.5c-8.6,14-19.4,15.9-19.4,15.9c-1.5-2.5-11.7,4.3-11.7,4.3c-4.3,9.7-19.2,5.7-19.2,5.7
		c-16.5,3.5-22.8-2.3-22.8-2.3c-7.5-8-25-12.3-25-12.3"/>
	<g id="nata_m">
		<path class="st2" d="M120.1,105.1c-6.7-0.5-3.3,6.4-3.3,6.4c23,14.8,20,19.7,20,19.7c3.2-5.5,0-9.7,0-9.7
			c-12.6-9.6-12.6-17.8-12.6-17.8C124.7,103.9,121.7,105.2,120.1,105.1z"/>
		<path class="st2" d="M147.1,114.2C154,103.6,136,96.8,136,96.8s-5.7-1.8-10.2,5.8c2.5,2.8,5.6,5.8,9.4,8.8c2.7,2.2,5.3,4,7.8,5.5
			c1,0.9,3.8,2.9,7.9,3.3c2.7,0.2,4.9-0.4,6.1-0.9c-2.2-0.5-5-1.5-7.8-3.5C148.4,115.3,147.7,114.7,147.1,114.2z"/>
		<path class="st2" d="M82.6,99.5c0,0-0.7,5.7-2.6,7.7c0,0,4-0.1,10.8,9.6c0,0,5.8,4.8,19.1,7.6c0,0,5.5-3.2,18.1,11.8h2.4
			c0,0-10-18-21.6-16.9c0,0-0.9,2-19.9-15.7C88.8,103.7,82,98.1,82.6,99.5z"/>
		<path class="st2" d="M60.4,90.1c0,0-5.4,27.6,55.3,43.7C107.2,139.8,32.4,104.3,60.4,90.1z"/>
	</g>
	<g id="sombra">
		<path class="st3" d="M61.6,90"/>
		<path class="st3" d="M86.8,128.2c0,0,14.3,8.4,25.3,4.6c0,0-12,5.5-36.7-14c0,0-32.4-17-15-28.6c0,0-19.8-6.8-6.1,16.1
			c0,0,1.3,6.7,30.8,22"/>
		<path class="st3" d="M81.4,98.1c0,0,2.6,7.3,9.4,9.8c0,0,1.3,4.8,13.3,10.8c0,0,13,7.9,11.5,9.4c0,0-14.1-9.6-14.4-9.4
			c0,0-12.8-7.5-11.6-9.2c0,0-12.1-3.5-12.1-6.9L81.4,98.1z"/>
		<path class="st3" d="M158.4,118.3c-16-3.4-26.4-21.4-26.4-21.4l-3.4,2.1l-4.4,4.7l12.6,9.4c9.2,8.9,14.3,5.6,14.3,5.6L158.4,118.3
			z"/>
	</g>
</g>
<g id="sombra_pasta">
	<path class="st4" d="M49.5,64.9c0,0,1-3.5-1.5-5.5c0,0-4.9,13.8-6,12.7c0,0-3.9-11.1,4.8-15.8C46.8,56.4,54.4,55.6,49.5,64.9z"/>
	<path class="st4" d="M62.5,86.4l0.6-3.5c0,0,0.9-3.4-4.6-2.6s-5.4-0.1-5.4-0.1l0-2.4c0,0-4.3-4.4-2-10.7c0,0-8.1,5,0.5,14.5
		c0,0,11,6.5,11.5,3.5"/>
	<path class="st4" d="M43.4,93.6c0,0,2.1-13.7,18.6-2.9c0,0-14.8-13.7-17.2-2.2C44.9,88.4,39.5,80.4,43.4,93.6z"/>
	<path class="st4" d="M80.9,96.8c20,6.6,19,6.8,19,6.8c1.2,2.4,8.3,0,8.3,0c7.8,3.2,7.7,0,7.7,0c5.7,2.1,8.3-2.2,8.3-2.2
		c8.8-12.1,20.9-7.8,20.9-7.8c-6.4-1.3-18,7-18,7c-3.1,7-10.2,4.8-10.2,4.8c-0.9,6-9.4-0.4-9.4-0.4c-4.4,2.8-7.8,0.7-7.8,0.7
		c-7.5,3.3-17.1-6.2-17.1-6.2S78.5,96.1,80.9,96.8z"/>
	<path class="st4" d="M100.9,95.4c0,0-2,4.3-3.2,0c0,0-3-11.7,3.2-5c0,0,2.4,2.3,3.2,1.1C104.1,91.5,107.3,108.4,100.9,95.4z"/>
	<path class="st4" d="M109.3,97.7c0,0-0.9,1.4-2.4-0.9c0,0-4-13.3,0.7-2.8C107.5,94,110.9,97.7,109.3,97.7z"/>
	<path class="st4" d="M112.5,90.7c0,0,4.8,1.4,5.7-12.9c0,0,3.5-8.9,12.6-1.4c0,0,0.5-8.8,6.5,3.9c0,0-1.1,8.8-4.8,10.4
		c0,0,5.5,2.8,6.3-3.4c0,0,1.9-15.1-5.5-18.5l-5.2,0.7c0,0-8.9-9.6-15.5,8.2V90.7z"/>
	<path class="st4" d="M124.2,88.7c0,0,4,2.1-6.4,7.3c0,0-1.1,8.5,10.2-2.4c0,0-6.2,1.5-0.9-4.4c0,0,2.4-18.4-4.5-6.3
		C122.6,82.9,118.4,81.7,124.2,88.7z"/>
	<path class="st4" d="M56.7,124.4c0,0-9-12.2-7.4-13.5c-0.9-5.6-16.9-16.3-2.2,15.8c0,0-6.7,16.2,7.1,17.6c0,0,26.6,21.9,63.4,9.1
		c1.5,3.4,26.2-2.8,32.7-24.2c0,0,12.2-14.3-1.3-1.9c0,0-6.7,14.8-28.5,20.9c0,0-31,14-61.1-5.2c0,0-14.4-3.9-10.1-16.4
		c0,0-5.2-18.4-1.8-15C47.7,111.6,48.9,121.8,56.7,124.4z"/>
	<path class="st4" d="M148.2,127.4c0,0,3.2,2.8-6.9,0.7c0,0,2.2,3.2-6.1,9c0,0,6.3-9.6,4.2-10.4c0,0,0.7-2,2.6-1L148.2,127.4z"/>
	<path class="st4" d="M81.8,132.8c0,0-21.9-1.5-23.2-5.7c0,0,10.7,3.4,14.5,0c0,0,8.5-1.5,19.5,6.7c0,0,2.3,1.8,6.8,0.8
		c0,0-1.2,2.9,8.8,0c0,0,4.2,0.6,7.8-1.8c0,0,0.5,7.5-6.2,4.4c0,0-7.2,4.4-10.5,1.3C99.2,138.4,94.1,142.3,81.8,132.8z"/>
	<path class="st4" d="M129.2,137.5c0,0-1.4-2.8-8-3C121.2,134.5,126.5,140.2,129.2,137.5z"/>
	<path class="st4" d="M55.5,134.9c0,0-2.2,1.1,2.4,4.9c0,0-12.9,0-5.9-15.3c0,0,1.1,6,10,10c0,0,7.3,11.2-7.7,0.4"/>
	<path class="st4" d="M98.3,142.3"/>
	<path class="st4" d="M102.6,143.7c0,0-0.2-4.6-5.6-1.4c0,0-5.6,5.3-4.4,6.7c0,0,4.5-1.5,2.6,1.3c0,0,3.6,2,7.8-7.3"/>
	<path class="st4" d="M112.1,139.8c0,0-8.8,5.6-9.2,9.7c0,0,5-3.2,2.2,2.1c0,0,14.8,0.9,9.3-8.6L112.1,139.8z"/>
	<path class="st4" d="M92.4,141.2c0,0-7.5-1.7-6.7-2.7l-2.7,2.7c0,0-0.8-2.7,1.9-4.8c0,0,6.1-1.6-3.2-1.9c0,0-8.1,9.3,0.6,1.9
		c0,0-5.8,13,3.7,4.8C86,141.1,92.7,144.9,92.4,141.2z"/>
</g>
<g id="choco_negro">
	<linearGradient id="SVGID_1_" gradientUnits="userSpaceOnUse" x1="14.1876" y1="91.5076" x2="188.8612" y2="91.5076">
		<stop  offset="0" style="stop-color:#000000"/>
		<stop  offset="1" style="stop-color:#000000"/>
	</linearGradient>
	<path class="st5" d="M188.8,138.6c0.2-1.5-1.5-3.4-5.1-5.5c-1.2-0.4-2.9-1-5-1.5c-1.5-0.4-3.7-0.9-7.3-1.3
		c-3.1-0.4-7.6-0.8-13.5-0.8c-1.1-4.8-1.8-8.9-2.2-12c-0.9-7.5-1.4-11.4-0.5-16.5c0.6-3.3,1.2-3.8,1.2-6.3c0-4.8-2.2-7.3-0.7-9.8
		c0.8-1.4,1.7-1,3.1-2.6c0.8-1,1.5-2.8,2.4-8.2c1.8-10.2-4.8-18.3-4.8-18.3c-2.3-6.3-16-14.3-16-14.3c-7.7-2-8.2-6.5-8.2-6.5
		c5.3-7.4-16.5-16.3-16.5-16.3c-3.3-3.1-14-2-14-2c-15.4-1.5-17.5,3-17.6,4.7c-1.3-0.1-3.4,0-5.7,0.7c-3.8,1.2-6.2,3.5-8.8,6.2
		c-3.2,3.2-2.6,3.5-5.2,6c-2.6,2.5-5,3.9-9.7,6.5c-5.6,3.1-9.7,4.7-10.3,7.5c0,0,0,0.1-0.7,3.2c-0.5,1.1-1.1,2.5-1.8,4.1
		c-0.9,2.1-0.7,3.5-1.8,4.8c-0.8,0.9-1.4,1-2,1.5c-2.5,2-1.6,7.2-1.3,8.9c1.1,7.4-1.8,7.6-2,19.3c-0.1,4.3,0.2,10.6,2,18.3
		c2.1,21.6-1.3,28.1-5,30c-0.2,0.1-0.1,0-6.4,2.5c-7.5,2.9-9.3,3.6-10.3,5.6c-1.2,2.3-0.7,4.9-0.2,6.6c1.4,1.2,3.5,2.7,6.5,3.8
		c2.7,1,5,1.3,7.4,1.5c8.3,0.6,15,0.1,15.6,0c4.2-0.4,9.7-1.1,16.1-2.5c2.4,1.3,6.3,3.1,11.2,3.9c8.5,1.2,12.3-1.8,20.1-0.9
		c6.7,0.8,8.2,4,14.8,6.1c6.6,2.1,15.8,3.5,29.3,1.1c0.9-0.3,2.2-0.8,3.6-2c1.9-1.6,2.7-3.6,3-4.5c7.9-0.4,15.8-0.8,23.7-1.2
		c0.7,0,3.8-0.1,6.2-2.5c1.4-1.4,2-3,2.3-3.9c-0.3-1-0.6-1.9-1-2.5c-2.6-4.2-7.9-4.7-8.9-4.8C180.3,143.6,188.4,141.7,188.8,138.6z
		 M68,129.1c-0.3,2-0.6,2.9-0.8,5c-0.8,6.3,0,11.4,0.8,14.8c-1.5-1-2.8-1.5-3.8-1.7c-1.5-0.3-3.2-0.2-3.5-1c-0.1-0.2,0-0.3,0-0.5
		c0.2-2.4-9.4-5.2-10.9-4.3c-0.1,0-0.4,0.3-0.6,0.1c-0.2-0.1,0-0.6,0-0.9c0.2-1.1-0.7-2.1-1-2.6c-1.1-1.6-0.4-4-0.3-6.5
		c0-1.8-0.2-4.4-1.7-7.7c-1.2-2-2.5-4.9-3.2-8.6c-0.4-2-0.5-3.7-0.4-5.2c2.8-20.2-0.8-21-0.8-21c-1.2-4.8-3.1-14.9,1.5-25.3
		c1-2.4,2.3-4.4,3.5-6.2c0.2-0.1,2.5-1.9,4.3-1c1,0.5,1.4,1.4,2,3.2c0.6,1.7,1.2,3.1,0.7,4.8c-0.4,1.4-1.4,2.3-2,2.8
		c-0.3,1-0.5,2.6,0,4.3c1,3.1,3.5,3.3,6.8,7.3c2.9,3.4,3.8,6.6,4,7.3c0.5,1.7,0.5,2.7,0.7,5c0.2,2.4,0.6,5.9,1.5,10.2
		c-0.2,1.2-0.5,3.7,0.2,6.3c0.4,1.4,1.2,2.8,1.2,3c0.4,0.8,0.7,1.4,1,1.8C68.8,119.8,68.6,125.4,68,129.1z M117.7,140.6
		c-0.7,10.7-0.7,10.7-0.7,10.7c-8.9,4-15,4.3-18.7,4c-1.7-0.1-5.6-0.6-8.7-1c-9.3-1.1-7.2-1.1-8.3-1.2c-2.1-0.1-3,0.1-3.8-0.7
		c-1.3-1.2-0.6-3.2-0.7-6.3c0-2.9-0.6-3.4-1.5-7.7c0,0-2-9,0-22.5c0.7-4.5,2.7,0,7.8-18.3c0.7-3.1,2-4.2,3-4.7
		c1.6-0.7,2.8,0.3,5-0.7c0.4-0.2,1.3-0.9,3-2.3c0,0,0.8-0.7,3.5-3c0.6-0.3,4.2-1.6,7.2,0.2c0.4,0.3,1.6,1,2.7,3
		c2.1,3.8,1.7,7.7,1.7,8.7c-0.3,3.6,0.4,9.4,4.8,18.5C114,117.3,118.4,129.9,117.7,140.6z M120.5,150.9c0,0,1.8-29.3-4.3-40.8
		c0,0-3.7-18.3-2.7-21.2c0,0,2.3-5,0-11.3c0,0,4.7-3,6.3-7.3c0.3-0.4,0.6-0.9,0.9-1.3c0,0,2-2.6,6.6,1.6c0,0,8.3-1.7,10.7,5.3
		c0,0,8-1.5,7,19.2c0,0,5.9,6,5.5,12c0,0-2.2,7,2.5,16.3C153,123.4,145.8,146.9,120.5,150.9z"/>
</g>
<g id="choco_medio">
	<path class="st6" d="M101.5,26.6c0,0,2.5-1.6,0.8-4.4c0,0-9.5-10-16.2,1.3c0,0,1.5,2.7,4.8,4.7c0,0-0.3,1.7-6.7-3.5
		c0,0-0.6,8-9.9,18.5c0,0-4.6,3-6.4,1c0,0,8.8,4.8-3.4,20.6l9.8-5.2c0,0-2.8-7.8,5.7-13.3c0,0,17.7-2,14.2-14.8c0,0,6.4,0,5.4-4.4
		L101.5,26.6z"/>
	<path class="st6" d="M76.5,62.3c0.1-0.7,1.5-8.7,5.8-3.1c6.6,8.5,14.3,11.3,14.4,11.3l8.5,4.4c0,2.2-7.1,8.9-22-1.7
		C83.1,73.3,78.5,71.3,76.5,62.3"/>
	<path class="st6" d="M142.9,60.4c-0.6,0.2,0.7,3-6.9,0l9.7,11.5l1.4,3.3c0,0-6.9-0.5-17.9-9.3c0,0-10.3-4.4-11.5,3.3
		c0,0-10.4,7.1-21.8-3.5c0,0,24.1,5.2,15.6-2.3c0,0-18-2.8-23.8-12.1c0,0-4.4-6.1,4.5-2.6c0,0,9.8,6.1,7.8-2.5c0,0-3-4,2.8-1.9
		c0,0,2.1,5,23.3,1c0,0,2.1,5.5-0.4,5.7c0,0-8.4,3.7-12.1,0.3c0,0-4.5-1.4-0.4,2c0,0,9.4,3,20.8,0c0,0,2.6,4.9,8.8,6.6"/>
	<path class="st6" d="M71.6,118.3c0,0,0.2-3.2-2.1,0c0,0,2.6,12.9,0,17.3c0,0,1.4,16.8-3.3,15.9c0,0-10.6-6.7-23.8-4.8
		c0,0,4.8-2.5,3.3-9.4c0,0-0.5-9.5-2.3-15c0,0-1.1-3.4-1,0c0,0-1.5,21.7-10.7,22.6c0,0-16.3,3.5,0,6.4c0,0,12.6-4.2,26,1.2
		c0,0,15.9,8.3,24,4.8c0,0-12.2-1.3-10.7-4.8c0,0,2.6-1.6,2.1-8c0,0-1.8-9.5-0.3-11.4C73,133.1,74.4,133.2,71.6,118.3z"/>
	<path class="st6" d="M109.9,91.5c0,0,1.4,19,2.8,20.1c0,0,5.2,12.9,5,23.2c0,0,0.9,15.1,0,16.8c0,0,0.8,3.7-7.8,3
		c0,0,14.6,4.6,15.9-3c0,0-6.6,1.7-5.9,0c0.7-1.6-0.3-38.1-6-39.3c0,0-2.5-5.7-2.3-20.8C111.6,91.5,110.6,82.4,109.9,91.5z"/>
	<path class="st6" d="M107.2,158.1c0,0-6.9-1.4-2.1,2.1c0,0,28.9,10,33.4-2.1c0,0,2.3-4.3-3.1-2.9
		C135.4,155.2,121.3,161.4,107.2,158.1z"/>
	<path class="st6" d="M158.5,147.1c0,0,14.5,4.9,5.2,5.4c0,0-13,0.8-21.2-2.7c0,0,0.4-2.2,6.8-0.8c0,0,21.1,2.8,7.1-1.3
		C156.4,147.7,150.9,145.4,158.5,147.1z"/>
	<path class="st6" d="M179,134.2c-0.3-0.3-3.6-3.1,3,0c0,0,4.6,3.6-2.8,5.2c0,0-19.2,1.2-22-0.8c0,0-7-2.1,9.6-2.3
		C166.8,136.3,184.1,138.4,179,134.2z"/>
</g>
<g id="blanco_medio">
	<linearGradient id="SVGID_2_" gradientUnits="userSpaceOnUse" x1="44.86" y1="51.3331" x2="72.2192" y2="51.3331">
		<stop  offset="0" style="stop-color:#C0CAD4"/>
		<stop  offset="1" style="stop-color:#666164"/>
	</linearGradient>
	<path class="st7" d="M48.7,46.1c0,0-3.8,1.8-3.8,5.3c0,0,2.7,0.2,7.7,1.7c0,0,8.3,5,12.7-2.2c0,0,4.2,0.6,0.7,3.9
		c0,0-2.1,2.8-10.8,3.1c0,0,1.2,4.8,0.2,7.7c0,0,11.2,1.7,14.3-8c0,0,3-2.7,2.7-10c0,0-7-2.7-7.3-10.7
		C64.9,36.9,53.2,50.4,48.7,46.1z"/>
	<linearGradient id="SVGID_3_" gradientUnits="userSpaceOnUse" x1="69.0205" y1="33.2808" x2="87.0267" y2="33.2808">
		<stop  offset="0" style="stop-color:#C0CAD4"/>
		<stop  offset="1" style="stop-color:#666164"/>
	</linearGradient>
	<path class="st8" d="M83,28.1c0,0,1.2-9.7-6-4.2c0,0-8.3,4.8-8,11.3c0,0,2.7,4.7,7,1.7c0,0-10.7,4-4.7,5.2c0,0,0.8,2.5,6.2,2.2
		c0,0,0-3.8,5.6-3.8c0,0-0.4-5.2,3.9-10.3C87,30.1,83,30.6,83,28.1z"/>
	<linearGradient id="SVGID_4_" gradientUnits="userSpaceOnUse" x1="36.8153" y1="65.9419" x2="39.5267" y2="65.9419">
		<stop  offset="0" style="stop-color:#C0CAD4"/>
		<stop  offset="1" style="stop-color:#666164"/>
	</linearGradient>
	<path class="st9" d="M39.5,62.3c0,0-4.9-0.5-1.5,7.3h1.5V62.3z"/>
	<linearGradient id="SVGID_5_" gradientUnits="userSpaceOnUse" x1="17.5719" y1="122.3287" x2="51.6809" y2="122.3287">
		<stop  offset="0" style="stop-color:#C0CAD4"/>
		<stop  offset="1" style="stop-color:#666164"/>
	</linearGradient>
	<path class="st10" d="M49,151.8l-20.3-1c0,0-9.5-3.2,0-5.3c0,0,9,1,13.3-15c0,0-1.8-13.8-1.2-20.7c0,0-2.2-9.8-1.3-19.2
		c0,0-1-3.2-1.4,0c0,0-1.8,8,1.4,18.7c0,0,0.9,21.7-2.8,27c0,0-3.6,7.5-16.2,8c0,0-8.5,6,3.3,7.5c0,0,7.5,6,21,2.7
		C44.9,154.4,56.9,153.3,49,151.8z"/>
	<linearGradient id="SVGID_6_" gradientUnits="userSpaceOnUse" x1="60.1933" y1="152.445" x2="60.1933" y2="152.445">
		<stop  offset="0" style="stop-color:#C0CAD4"/>
		<stop  offset="1" style="stop-color:#666164"/>
	</linearGradient>
	<path class="st11" d="M60.2,152.4"/>
	<linearGradient id="SVGID_7_" gradientUnits="userSpaceOnUse" x1="56.7119" y1="154.669" x2="82.36" y2="154.669">
		<stop  offset="0" style="stop-color:#C0CAD4"/>
		<stop  offset="1" style="stop-color:#666164"/>
	</linearGradient>
	<path class="st12" d="M60.2,152.4c0,0-7.8-3.5,0,1.7c0,0,7.5,5.2,18.8,3.7c0,0,7.5-1,0-1.7C79,156.1,74.7,158.1,60.2,152.4z"/>
	<linearGradient id="SVGID_8_" gradientUnits="userSpaceOnUse" x1="65.6748" y1="134.875" x2="71.6214" y2="134.875">
		<stop  offset="0" style="stop-color:#C0CAD4"/>
		<stop  offset="1" style="stop-color:#666164"/>
	</linearGradient>
	<path class="st13" d="M69.5,118.3c0,0,1.2,14.8,0,16.7L69,147.4c0,0,0.2,2-3.3,3.8c0,0,4.8,0.8,5.2-1c0,0,0.8-0.2,0-10.8
		c0,0,0-2,0.4-5.7c0,0,1,1.3-0.4-15.5H69.5z"/>
	<linearGradient id="SVGID_9_" gradientUnits="userSpaceOnUse" x1="88.5341" y1="23.529" x2="101.1933" y2="23.529">
		<stop  offset="0" style="stop-color:#C0CAD4"/>
		<stop  offset="1" style="stop-color:#666164"/>
	</linearGradient>
	<path class="st14" d="M94.4,21.4c0,0-10.7,0.8-3.2,5c0,0,7.5,3,10-2.5C101.2,23.9,100.5,16.6,94.4,21.4z"/>
	<linearGradient id="SVGID_10_" gradientUnits="userSpaceOnUse" x1="68.1008" y1="70.945" x2="68.1008" y2="70.945">
		<stop  offset="0" style="stop-color:#C0CAD4"/>
		<stop  offset="1" style="stop-color:#666164"/>
	</linearGradient>
	<path class="st15" d="M68.1,70.9"/>
	<linearGradient id="SVGID_11_" gradientUnits="userSpaceOnUse" x1="62.7193" y1="91.2225" x2="94.6614" y2="91.2225">
		<stop  offset="0" style="stop-color:#C0CAD4"/>
		<stop  offset="1" style="stop-color:#666164"/>
	</linearGradient>
	<path class="st16" d="M65.7,87.1c0,0,2.8,1.2,1.5,5.2c0,0,8.7-6.7-3.5-10.2c0,0-3.5-3.8,3.2-4c0,0-10.2-8.2,1.2-7.2
		c0,0,0.4-1.8,18.9,7.5c0,0,9.2,3.3,7.4,4c0,0-6.9,6.5-22.8,2c0,0,0.2,2.7,12.9,4.8c0,0-5,9.9-10.7,7.6c0,0-3,1.1,2,3.6
		c0,0-3.5,3-5.3,9.5c0,0-1.5,4.3-4.3-0.8c0,0-0.5-0.3,0-10.7C66.2,98.4,64.5,94.4,65.7,87.1"/>
	<linearGradient id="SVGID_12_" gradientUnits="userSpaceOnUse" x1="109.227" y1="32.6748" x2="119.6099" y2="32.6748">
		<stop  offset="0" style="stop-color:#C0CAD4"/>
		<stop  offset="1" style="stop-color:#666164"/>
	</linearGradient>
	<path class="st17" d="M118,34.1c0,0,5.2-3-3.2-5c0,0-8.7-0.5-4.5,5.8c0,0,5.5,3.8,7.7-1.7"/>
	<linearGradient id="SVGID_13_" gradientUnits="userSpaceOnUse" x1="135.9552" y1="80.4104" x2="152.2008" y2="80.4104">
		<stop  offset="0" style="stop-color:#C0CAD4"/>
		<stop  offset="1" style="stop-color:#666164"/>
	</linearGradient>
	<path class="st18" d="M138.5,62.9c0,0-3.5-6.5-2.3,1.3c0,0,9,10.3,9.5,7.7c0,0,1.8,8.2,1.5,23.2c0,0,0.2,8,4.5,4.3
		c0,0,1.5-0.8-1.5-4.5c0,0,1.5-6.1-1.5-14.5c0,0-0.8-3.8-0.3-7.3c0,0,1.1,2.8,3.7,1.7c0,0,1.3-2.5-3.9-3.8
		C148.2,70.9,142.7,69.4,138.5,62.9z"/>
	<linearGradient id="SVGID_14_" gradientUnits="userSpaceOnUse" x1="105.86" y1="162.6458" x2="139.36" y2="162.6458">
		<stop  offset="0" style="stop-color:#C0CAD4"/>
		<stop  offset="1" style="stop-color:#666164"/>
	</linearGradient>
	<path class="st19" d="M105.9,161.3c0,0,26.3,12.8,33.5-2.3c0,0-7.4,8.2-32.7,2.8"/>
	<linearGradient id="SVGID_15_" gradientUnits="userSpaceOnUse" x1="136.8415" y1="153.4047" x2="167.1348" y2="153.4047">
		<stop  offset="0" style="stop-color:#C0CAD4"/>
		<stop  offset="1" style="stop-color:#666164"/>
	</linearGradient>
	<path class="st20" d="M139.4,152.4c0,0-5.7-1.2,0,2.2c0,0,7.3,1.5,11.5-0.7c0,0,11.7,1.8,13.6,0.7c0,0,5.6-0.7,0.7-2.1
		c0,0-18.2-2.3-17.2,0.3C147.9,152.9,143.5,153.4,139.4,152.4z"/>
	<linearGradient id="SVGID_16_" gradientUnits="userSpaceOnUse" x1="152.3785" y1="139.7783" x2="183.5659" y2="139.7783">
		<stop  offset="0" style="stop-color:#C0CAD4"/>
		<stop  offset="1" style="stop-color:#666164"/>
	</linearGradient>
	<path class="st21" d="M153.9,138.4c0,0-3.3,1,0,2.6c0,0,11.5,0.3,26.8-0.3c0,0,9.2-0.8-5.3-1.6L153.9,138.4z"/>
	<linearGradient id="SVGID_17_" gradientUnits="userSpaceOnUse" x1="80.86" y1="62.024" x2="80.86" y2="62.024">
		<stop  offset="0" style="stop-color:#C0CAD4"/>
		<stop  offset="1" style="stop-color:#666164"/>
	</linearGradient>
	<path class="st22" d="M80.9,62"/>
	<linearGradient id="SVGID_18_" gradientUnits="userSpaceOnUse" x1="80.0267" y1="62.2721" x2="80.0267" y2="62.2721">
		<stop  offset="0" style="stop-color:#C0CAD4"/>
		<stop  offset="1" style="stop-color:#666164"/>
	</linearGradient>
	<path class="st23" d="M80,62.3"/>
	<linearGradient id="SVGID_19_" gradientUnits="userSpaceOnUse" x1="77.5403" y1="68.1433" x2="104.0788" y2="68.1433">
		<stop  offset="0" style="stop-color:#C0CAD4"/>
		<stop  offset="1" style="stop-color:#666164"/>
	</linearGradient>
	<path class="st24" d="M104.1,74c0,0-20.6-8.9-26.5-14.1c0,0-0.6,8.5,8.3,13.8C85.8,73.6,100.5,79.6,104.1,74z"/>
</g>
<g id="blanco_intenso">
	<path class="st25" d="M97.7,22.9c0,0-3.2-3.5-5.2,0.7C92.5,23.6,97.2,26.9,97.7,22.9z"/>
	<path class="st25" d="M77.2,34.1c-5.8-5.4,0-9.2,0-9.2c7-2.9,1.3,1.2,1.3,1.2s-2.8,2.5,2.8,7.2c0,0-0.7,8.5-10.5,7.8
		c0,0-3.8-1.5,1.3-2.3C72.2,38.8,80.3,37,77.2,34.1z"/>
	<path class="st25" d="M50.7,48.9c0,0-8.7,0.8,0,2.2c0,0,14.3,3.5,14.7-5.7c0,0,0.3-8.2-2.8,0C62.5,45.4,61.2,50.1,50.7,48.9z"/>
	<path class="st25" d="M57.5,63.1c0,0-2-0.7,0-3.3c0,0,7.8,0.3,11-8c0,0,1.8-3.7,1,1.2C69.5,52.9,64.5,62.6,57.5,63.1z"/>
	<path class="st25" d="M38.2,63.1l1.4,1.2l-0.7,2.8h-1.7C37.1,67.1,36.8,63.3,38.2,63.1z"/>
	<path class="st25" d="M28.7,143.9c0,0-14,3.6,0,7.7c0,0,4.3,0.7,0,1.8c0,0-22.3-6.2-2.1-10C26.5,143.4,33.1,142.2,28.7,143.9z"/>
	<path class="st25" d="M63.2,153.6c0,0,6.6,3.8,11.9,2.9C75.1,156.4,67.6,158.7,63.2,153.6z"/>
	<path class="st25" d="M66.7,125.8c0,0-11.7-3.3-15-14.1c0,0,8.2,10.5,15,11.5c0,0-18.8-12-21.8-33c0,0-5.3,1.7,4.5,20.8
		C49.4,110.9,53.9,126.4,66.7,125.8z"/>
	<path class="st25" d="M60.9,91.2c-4.2,8.9,3.5,13.7,3.5,13.7c-1.6-2,0-3.7,0-3.7S62.9,87,60.9,91.2z"/>
	<path class="st25" d="M114.2,132.1c0,0-12.2-2-18.2-8.3c0,0-10.8-5.7-18.5-10.7c0,0,2.6,6,16.9,11.8
		C94.4,124.9,103.2,134.4,114.2,132.1z"/>
	<path class="st25" d="M114.2,117.6c0,0-3.3,0.2-8.3-4.5c0,0,1.7,2.2-5-1.5C100.9,111.6,112.2,122.1,114.2,117.6z"/>
	<path class="st25" d="M136,129.4c0,0-3.8-0.3-14.6-7.8c0,0-2.8-1,0,2c0,0,3.3-1.3,9.7,11.3C131,134.9,131.4,128.4,136,129.4z"/>
	<path class="st25" d="M149.2,122.8c0,0-5.5,1.6-9.8-4.1C139.4,118.7,143.7,128.1,149.2,122.8z"/>
	<path class="st26" d="M72.2,73.4c0,0-8.6-0.8-6.5,1.8c2,2.6,4,2.6,4,2.6S76.9,77.1,72.2,73.4z"/>
	<path class="st26" d="M68.1,79.1c0,0-4.6-0.3-3.4,2.5C64.7,81.6,73.3,81.2,68.1,79.1z"/>
	<path class="st26" d="M83.8,70.8c0,0-3.8-2.5-5.8-9.5C76,54.3,83.8,69.3,83.8,70.8z"/>
	<path class="st26" d="M66.7,93.9c0,0,4.9-2.2,4.9-5.8C71.6,84.4,73.2,95.1,66.7,93.9z"/>
	<path class="st26" d="M66.2,151.5c0,0,3.5-1.8,3.3-6.1C69.3,141,72.9,152.2,66.2,151.5z"/>
</g>
</svg>
